# xmcd CD database file
#
# Track frame offsets:
#	150
#	32214
#	60098
#	101754
#
# Disc length: 1913 seconds
#
# Revision: 0
# Processed by: cddbd v1.4PL0 Copyright (c) Steve Scherf et al.
# Submitted via: CDex 1.50Beta6
#
DISCID=29077704
DTITLE=Annie Mae - ...we pulled the weeds till the garden was warm
DYEAR=2001
DGENRE=Rhythmic Soul
TTITLE0=something for now
TTITLE1=nothing
TTITLE2=before the light switch
TTITLE3=humblebug
EXTD=YEAR: 2001
EXTT0=
EXTT1=
EXTT2=
EXTT3=
PLAYORDER=
